<svg width="100" height="100" viewBox="0 0 100 100" fill="none" xmlns="http://www.w3.org/2000/svg">
<g clip-path="url(#clip0_5832_8)">
<rect width="100" height="100" rx="20" fill="#8323FF" fill-opacity="0.83"/>
<path d="M13.4148 55V47.8977L26.9801 36.6761C27.8797 35.9304 28.6491 35.232 29.2884 34.581C29.9394 33.9181 30.4366 33.2375 30.7798 32.5391C31.1349 31.8407 31.3125 31.0653 31.3125 30.2131C31.3125 29.2779 31.1113 28.4789 30.7088 27.8161C30.3182 27.1532 29.7737 26.6442 29.0753 26.2891C28.3769 25.9221 27.572 25.7386 26.6605 25.7386C25.7491 25.7386 24.9441 25.9221 24.2457 26.2891C23.5592 26.656 23.0265 27.1946 22.6477 27.9048C22.2689 28.6151 22.0795 29.4792 22.0795 30.4972H12.7045C12.7045 27.9403 13.2786 25.7386 14.4268 23.892C15.575 22.0455 17.1967 20.625 19.2919 19.6307C21.3871 18.6364 23.8433 18.1392 26.6605 18.1392C29.5724 18.1392 32.0938 18.6068 34.2244 19.5419C36.367 20.4652 38.0182 21.7673 39.1783 23.4482C40.3501 25.129 40.9361 27.0999 40.9361 29.3608C40.9361 30.7576 40.6461 32.1484 40.0661 33.5334C39.486 34.9065 38.4444 36.4276 36.9411 38.0966C35.4377 39.7656 33.3011 41.7543 30.5312 44.0625L27.1222 46.9034V47.1165H41.3267V55H13.4148Z" fill="white"/>
<rect x="50.1436" y="42.1436" width="32" height="32" rx="5" transform="rotate(-30 50.1436 42.1436)" fill="white" fill-opacity="0.22"/>
<path d="M38.6449 63.4726C45.5202 57.9803 55.7726 61.5105 57.809 70.0713L60.9171 83.1377C63.1064 92.3414 54.2811 100.341 45.336 97.2609L31.7342 92.5774C22.7891 89.4974 20.7597 77.7603 28.1512 71.8555L38.6449 63.4726Z" fill="white" fill-opacity="0.22"/>
</g>
<defs>
<clipPath id="clip0_5832_8">
<rect width="100" height="100" rx="20" fill="white"/>
</clipPath>
</defs>
</svg>
