<svg width="100" height="100" viewBox="0 0 100 100" fill="none" xmlns="http://www.w3.org/2000/svg">
<g clip-path="url(#clip0_5832_24)">
<rect width="100" height="100" rx="20" fill="#0275FF" fill-opacity="0.83"/>
<path d="M27.6193 55.4972C24.7547 55.4972 22.2098 55.0059 19.9844 54.0234C17.7708 53.0291 16.0308 51.6619 14.7642 49.9219C13.4976 48.1818 12.8584 46.1813 12.8466 43.9205H22.7898C22.8016 44.6188 23.0147 45.2462 23.429 45.8026C23.8551 46.3471 24.4351 46.7732 25.169 47.081C25.9029 47.3887 26.7434 47.5426 27.6903 47.5426C28.6018 47.5426 29.4067 47.3828 30.1051 47.0632C30.8035 46.7318 31.348 46.276 31.7386 45.696C32.1293 45.116 32.3187 44.4531 32.3068 43.7074C32.3187 42.9735 32.0938 42.3224 31.6321 41.7543C31.1823 41.1861 30.549 40.7422 29.7322 40.4226C28.9155 40.103 27.9744 39.9432 26.9091 39.9432H23.2159V33.125H26.9091C27.8916 33.125 28.7557 32.9652 29.5014 32.6456C30.259 32.326 30.8449 31.8821 31.2592 31.3139C31.6854 30.7457 31.8925 30.0947 31.8807 29.3608C31.8925 28.6506 31.7209 28.0232 31.3658 27.4787C31.0107 26.9342 30.5135 26.508 29.8743 26.2003C29.2469 25.8925 28.5189 25.7386 27.6903 25.7386C26.7907 25.7386 25.9858 25.8984 25.2756 26.218C24.5772 26.5376 24.0268 26.9815 23.6243 27.5497C23.2218 28.1179 23.0147 28.7689 23.0028 29.5028H13.5568C13.5687 27.2775 14.1783 25.3125 15.3857 23.608C16.6049 21.9034 18.2739 20.5658 20.3928 19.5952C22.5116 18.6245 24.9441 18.1392 27.6903 18.1392C30.3774 18.1392 32.7507 18.5949 34.8104 19.5064C36.8819 20.4178 38.4976 21.6726 39.6577 23.2706C40.8295 24.8568 41.4096 26.6738 41.3977 28.7216C41.4214 30.7576 40.723 32.4266 39.3026 33.7287C37.8939 35.0308 36.1065 35.8002 33.9403 36.0369V36.321C36.8759 36.6406 39.0836 37.5402 40.5632 39.0199C42.0429 40.4877 42.7708 42.3343 42.7472 44.5597C42.759 46.6903 42.1198 48.5784 40.8295 50.2237C39.5511 51.8691 37.7696 53.1593 35.4851 54.0945C33.2124 55.0296 30.5904 55.4972 27.6193 55.4972Z" fill="white"/>
<rect x="50.1436" y="42.1436" width="32" height="32" rx="5" transform="rotate(-30 50.1436 42.1436)" fill="white" fill-opacity="0.22"/>
<path d="M38.6449 63.4726C45.5202 57.9803 55.7726 61.5105 57.809 70.0713L60.9171 83.1377C63.1064 92.3414 54.2811 100.341 45.336 97.2609L31.7342 92.5774C22.7891 89.4974 20.7597 77.7603 28.1512 71.8555L38.6449 63.4726Z" fill="white" fill-opacity="0.22"/>
<path d="M15.5285 4.05729C16.1823 1.2256 20.0776 0.884806 21.2132 3.55995L21.296 3.7551C21.8038 4.95146 23.0242 5.68477 24.319 5.57149L24.5302 5.55301C27.4253 5.29972 28.9531 8.89911 26.7598 10.8057L26.5998 10.9448C25.6189 11.7975 25.2986 13.1848 25.8065 14.3811L25.8893 14.5763C27.0248 17.2514 24.0738 19.8168 21.5827 18.32L21.401 18.2108C20.2869 17.5414 18.8685 17.6655 17.8877 18.5182L17.7277 18.6573C15.5343 20.5639 12.1826 18.55 12.8364 15.7183L12.8841 15.5117C13.1764 14.2453 12.6201 12.9347 11.5061 12.2653L11.3243 12.1562C8.83328 10.6594 9.71289 6.84936 12.608 6.59607L12.8192 6.57759C14.1139 6.46432 15.1885 5.53023 15.4808 4.26386L15.5285 4.05729Z" fill="white" fill-opacity="0.22"/>
</g>
<defs>
<clipPath id="clip0_5832_24">
<rect width="100" height="100" rx="20" fill="white"/>
</clipPath>
</defs>
</svg>
