<svg width="100" height="100" viewBox="0 0 100 100" fill="none" xmlns="http://www.w3.org/2000/svg">
<g clip-path="url(#clip0_5832_33)">
<rect width="100" height="100" rx="20" fill="#F9796E" fill-opacity="0.83"/>
<path d="M13.0597 49.3182V41.6477L27.6903 18.6364H34.6506V28.8636H30.6733L22.7898 41.3636V41.6477H44.3807V49.3182H13.0597ZM30.7443 55V46.9744L30.9574 43.6364V18.6364H40.1903V55H30.7443Z" fill="white"/>
<rect x="50.1436" y="42.1436" width="32" height="32" rx="5" transform="rotate(-30 50.1436 42.1436)" fill="white" fill-opacity="0.22"/>
<path d="M38.6449 63.4726C45.5201 57.9803 55.7726 61.5105 57.8089 70.0713L60.9171 83.1377C63.1064 92.3414 54.2811 100.341 45.336 97.2609L31.7342 92.5774C22.7891 89.4974 20.7596 77.7603 28.1512 71.8555L38.6449 63.4726Z" fill="white" fill-opacity="0.22"/>
<path d="M16.1468 3.78115C17.0449 1.01722 20.9551 1.01722 21.8532 3.78115L21.9187 3.98278C22.3203 5.21885 23.4722 6.05573 24.7719 6.05573H24.9839C27.89 6.05573 29.0984 9.77457 26.7472 11.4828L26.5757 11.6074C25.5242 12.3713 25.0843 13.7254 25.4859 14.9615L25.5514 15.1631C26.4494 17.927 23.286 20.2254 20.9349 18.5172L20.7634 18.3926C19.7119 17.6287 18.2881 17.6287 17.2366 18.3926L17.0651 18.5172C14.714 20.2254 11.5506 17.927 12.4486 15.1631L12.5141 14.9615C12.9157 13.7254 12.4758 12.3713 11.4243 11.6074L11.2528 11.4828C8.90165 9.77457 10.11 6.05573 13.0161 6.05573H13.2282C14.5278 6.05573 15.6797 5.21885 16.0813 3.98278L16.1468 3.78115Z" fill="white" fill-opacity="0.22"/>
<circle cx="56" cy="16" r="16" fill="white" fill-opacity="0.22"/>
</g>
<defs>
<clipPath id="clip0_5832_33">
<rect width="100" height="100" rx="20" fill="white"/>
</clipPath>
</defs>
</svg>
