<svg width="100" height="100" viewBox="0 0 100 100" fill="none" xmlns="http://www.w3.org/2000/svg">
<g clip-path="url(#clip0_5836_2)">
<rect width="100" height="100" rx="20" fill="#F9CC6E" fill-opacity="0.83"/>
<path d="M27.9744 55.4972C25.1809 55.4972 22.701 55.0059 20.5348 54.0234C18.3804 53.0291 16.6818 51.6619 15.4389 49.9219C14.2079 48.1818 13.5805 46.1813 13.5568 43.9205H23.1449C23.1804 45.1752 23.6657 46.1754 24.6009 46.9212C25.5478 47.6669 26.6723 48.0398 27.9744 48.0398C28.9806 48.0398 29.8684 47.8267 30.6378 47.4006C31.4072 46.9626 32.0109 46.3471 32.4489 45.554C32.8868 44.7609 33.0999 43.8376 33.0881 42.7841C33.0999 41.7188 32.8868 40.7955 32.4489 40.0142C32.0109 39.2211 31.4072 38.6115 30.6378 38.1854C29.8684 37.7474 28.9806 37.5284 27.9744 37.5284C26.9328 37.5284 25.968 37.7829 25.0803 38.2919C24.2043 38.7891 23.5592 39.4815 23.1449 40.3693L14.4801 38.6648L15.9006 18.6364H40.3324V26.5199H23.9972L23.2869 34.5455H23.5C24.0682 33.4446 25.0507 32.5331 26.4474 31.8111C27.8442 31.0772 29.4659 30.7102 31.3125 30.7102C33.4787 30.7102 35.4081 31.2133 37.1009 32.2195C38.8054 33.2256 40.1489 34.6165 41.1314 36.392C42.1257 38.1558 42.617 40.1918 42.6051 42.5C42.617 45.0331 42.0133 47.2822 40.794 49.2472C39.5866 51.2003 37.888 52.7332 35.6982 53.8459C33.5083 54.9467 30.9337 55.4972 27.9744 55.4972Z" fill="white"/>
<rect x="50.1436" y="42.1436" width="32" height="32" rx="5" transform="rotate(-30 50.1436 42.1436)" fill="white" fill-opacity="0.22"/>
<path d="M38.6449 63.4726C45.5201 57.9803 55.7726 61.5105 57.8089 70.0713L60.9171 83.1377C63.1064 92.3414 54.2811 100.341 45.336 97.2609L31.7342 92.5774C22.7891 89.4974 20.7596 77.7603 28.1512 71.8555L38.6449 63.4726Z" fill="white" fill-opacity="0.22"/>
<path d="M16.1468 3.78115C17.0449 1.01722 20.9551 1.01722 21.8532 3.78115L21.9187 3.98278C22.3203 5.21885 23.4722 6.05573 24.7719 6.05573H24.9839C27.89 6.05573 29.0984 9.77457 26.7472 11.4828L26.5757 11.6074C25.5242 12.3713 25.0843 13.7254 25.4859 14.9615L25.5514 15.1631C26.4494 17.927 23.286 20.2254 20.9349 18.5172L20.7634 18.3926C19.7119 17.6287 18.2881 17.6287 17.2366 18.3926L17.0651 18.5172C14.714 20.2254 11.5506 17.927 12.4486 15.1631L12.5141 14.9615C12.9157 13.7254 12.4758 12.3713 11.4243 11.6074L11.2528 11.4828C8.90165 9.77457 10.11 6.05573 13.0161 6.05573H13.2282C14.5278 6.05573 15.6797 5.21885 16.0813 3.98278L16.1468 3.78115Z" fill="white" fill-opacity="0.22"/>
<circle cx="56" cy="16" r="16" fill="white" fill-opacity="0.22"/>
<rect x="65" y="72" width="20" height="20" rx="4" fill="white" fill-opacity="0.22"/>
</g>
<defs>
<clipPath id="clip0_5836_2">
<rect width="100" height="100" rx="20" fill="white"/>
</clipPath>
</defs>
</svg>
